<?xml version="1.0" encoding="utf-8"?>
<!-- Generator: Adobe Illustrator 15.0.0, SVG Export Plug-In . SVG Version: 6.00 Build 0)  -->
<!DOCTYPE svg PUBLIC "-//W3C//DTD SVG 1.1//EN" "http://www.w3.org/Graphics/SVG/1.1/DTD/svg11.dtd">
<svg version="1.1" id="Ebene_1" xmlns="http://www.w3.org/2000/svg" xmlns:xlink="http://www.w3.org/1999/xlink" x="0px" y="0px"
	 width="80px" height="80px" viewBox="0 0 80 80" enable-background="new 0 0 80 80" xml:space="preserve">
<polygon fill="#7A6D5A" points="43.471,9.175 43.471,9.175 66.151,9.162 75.845,25.039 66.585,44.213 44.978,67.14 22.288,67.14 
	10.935,47.508 22.261,27.859 "/>
<polygon fill="#777676" points="46.931,16.876 42.371,16.562 48.331,9.173 46.412,9.174 38.127,18.517 40.956,19.233 34.513,25.039 
	38.442,25.039 35.771,27.845 35.928,30.706 38.127,30.706 38.127,27.859 40.642,25.039 45.673,22.219 "/>
<polygon fill="#7C5633" points="43.471,9.175 22.261,27.859 10.935,47.508 15.707,55.761 17.54,54.595 14.397,45.008 19.583,38.152 
	26.97,34.793 28.227,27.845 36.4,21.591 32.627,21.591 44.785,9.174 "/>
<polygon fill="#777676" points="57.459,27.845 52.819,20.952 53.53,14.833 57.459,14.833 62.51,9.165 50.169,9.171 48.181,25.039 
	53.371,32.467 "/>
<polygon fill="#7C5633" points="63.587,33.222 69.401,25.039 66.069,19.939 70.516,16.308 67.237,10.94 59.188,17.504 
	66.069,26.463 51.459,39.118 40.642,39.118 32.941,44.537 32.941,49.88 40.329,44.065 54.035,43.572 59.974,37.307 63.491,39.228 
	62.51,42.179 66.188,38.152 67.22,34.945 "/>
<polygon fill="#777676" points="59.724,51.494 61.231,45.166 66.188,39.979 67.987,36.266 70.516,34.164 66.188,41.864 
	64.402,44.221 64.446,46.483 "/>
<polygon fill="#777676" points="58.186,53.125 59.188,47.492 53.438,52.431 48.181,51.494 49.6,45.794 43.471,45.008 40.013,59.938 
	43.471,60.725 44.978,54.437 50.798,57.01 55.584,52.866 55.703,55.761 "/>
<polygon fill="#7C5633" points="29.484,67.135 26.027,62.295 33.613,57.738 33.613,52.866 28.541,50.823 29.821,56.952 
	22.726,60.725 20.993,64.903 22.288,67.14 "/>
<polygon fill="#777676" points="38.286,67.13 40.013,63.71 34.513,60.725 29.484,61.98 30.428,63.929 33.613,62.926 34.75,67.13 "/>
<polygon fill="#777676" points="18.577,60.725 26.185,55.761 23.198,49.88 25.242,42.829 20.993,41.55 17.225,47.492 21.705,53.809 
	16.396,56.952 "/>
<polygon fill="#777676" points="27.304,38.152 27.86,42.829 38.599,36.364 49.203,35.219 51.016,32.467 47.243,29.606 
	46.596,30.706 38.599,32.467 "/>
<polygon fill="none" stroke="#282425" stroke-miterlimit="10" points="43.471,9.175 43.471,9.175 66.151,9.162 75.845,25.039 
	66.585,44.213 44.978,67.14 22.288,67.14 10.935,47.508 22.261,27.859 "/>
<polygon fill="none" stroke="#282425" stroke-miterlimit="10" points="44.968,67.125 22.288,67.14 10.935,47.508 22.261,27.859 
	44.94,27.845 56.293,47.478 "/>
<line fill="none" stroke="#282425" stroke-miterlimit="10" x1="44.978" y1="27.859" x2="66.188" y2="9.175"/>
<line fill="none" stroke="#282425" stroke-miterlimit="10" x1="56.293" y1="47.492" x2="75.845" y2="25.039"/>
<g>
	<path d="M8.539,22.814c0.833-5.188,1.575-16.675,2.038-21.862L12.522,1.6c0,1.76,0.093,3.52,0.185,5.651
		c3.798,0.371,8.615,0.371,14.081,0.371h20.935C42.166,14.013,31.05,25.871,27.344,30.41c12.876,3.427,21.121,9.912,21.121,18.805
		c0,6.021-2.594,11.765-8.244,17.138c-4.354,4.076-11.765,7.597-21.307,7.597c-2.594,0-5.836,0.093-9.171-1.02
		c-0.741,1.204-1.019,2.687-1.297,4.076l-2.13,0.278c0.926-4.632,1.575-15.841,1.482-21.307l2.131,0.927
		c-0.093,3.52,0.185,5.465,0.371,7.967c3.057,4.631,8.8,5.465,12.598,5.465c8.43,0,15.47-7.226,15.47-15.563
		c0-10.283-9.263-16.119-20.75-18.805c2.501-2.594,13.618-14.729,18.713-21.121H22.62c-5.002,0-8.337,0.556-10.19,1.204
		c-0.556,1.205-1.111,3.242-1.667,6.207L8.539,22.814z"/>
</g>
</svg>
