<?xml version="1.0" encoding="utf-8"?>
<!-- Generator: Adobe Illustrator 15.0.0, SVG Export Plug-In . SVG Version: 6.00 Build 0)  -->
<!DOCTYPE svg PUBLIC "-//W3C//DTD SVG 1.1//EN" "http://www.w3.org/Graphics/SVG/1.1/DTD/svg11.dtd">
<svg version="1.1" id="Ebene_1" xmlns="http://www.w3.org/2000/svg" xmlns:xlink="http://www.w3.org/1999/xlink" x="0px" y="0px"
	 width="80px" height="80px" viewBox="0 0 80 80" enable-background="new 0 0 80 80" xml:space="preserve">
<polygon fill="#7A6D5A" points="43.471,9.175 43.471,9.175 66.151,9.162 75.845,25.039 66.585,44.213 44.978,67.14 22.288,67.14 
	10.935,47.508 22.261,27.859 "/>
<polygon fill="#777676" points="46.931,16.876 42.371,16.562 48.331,9.173 46.412,9.174 38.127,18.517 40.956,19.233 34.513,25.039 
	38.442,25.039 35.771,27.845 35.928,30.706 38.127,30.706 38.127,27.859 40.642,25.039 45.673,22.219 "/>
<polygon fill="#7C5633" points="43.471,9.175 22.261,27.859 10.935,47.508 15.707,55.761 17.54,54.595 14.397,45.008 19.583,38.152 
	26.97,34.793 28.227,27.845 36.4,21.591 32.627,21.591 44.785,9.174 "/>
<polygon fill="#777676" points="57.459,27.845 52.819,20.952 53.53,14.833 57.459,14.833 62.51,9.165 50.169,9.171 48.181,25.039 
	53.371,32.467 "/>
<polygon fill="#7C5633" points="63.587,33.222 69.401,25.039 66.069,19.939 70.516,16.308 67.237,10.94 59.188,17.504 
	66.069,26.463 51.459,39.118 40.642,39.118 32.941,44.537 32.941,49.88 40.329,44.065 54.035,43.572 59.974,37.307 63.491,39.228 
	62.51,42.179 66.188,38.152 67.22,34.945 "/>
<polygon fill="#777676" points="59.724,51.494 61.231,45.166 66.188,39.979 67.987,36.266 70.516,34.164 66.188,41.864 
	64.402,44.221 64.446,46.483 "/>
<polygon fill="#777676" points="58.186,53.125 59.188,47.492 53.438,52.431 48.181,51.494 49.6,45.794 43.471,45.008 40.013,59.938 
	43.471,60.725 44.978,54.437 50.798,57.01 55.584,52.866 55.703,55.761 "/>
<polygon fill="#7C5633" points="29.484,67.135 26.027,62.295 33.613,57.738 33.613,52.866 28.541,50.823 29.821,56.952 
	22.726,60.725 20.993,64.903 22.288,67.14 "/>
<polygon fill="#777676" points="38.286,67.13 40.013,63.71 34.513,60.725 29.484,61.98 30.428,63.929 33.613,62.926 34.75,67.13 "/>
<polygon fill="#777676" points="18.577,60.725 26.185,55.761 23.198,49.88 25.242,42.829 20.993,41.55 17.225,47.492 21.705,53.809 
	16.396,56.952 "/>
<polygon fill="#777676" points="27.304,38.152 27.86,42.829 38.599,36.364 49.203,35.219 51.016,32.467 47.243,29.606 
	46.596,30.706 38.599,32.467 "/>
<polygon fill="none" stroke="#282425" stroke-miterlimit="10" points="43.471,9.175 43.471,9.175 66.151,9.162 75.845,25.039 
	66.585,44.213 44.978,67.14 22.288,67.14 10.935,47.508 22.261,27.859 "/>
<polygon fill="none" stroke="#282425" stroke-miterlimit="10" points="44.968,67.125 22.288,67.14 10.935,47.508 22.261,27.859 
	44.94,27.845 56.293,47.478 "/>
<line fill="none" stroke="#282425" stroke-miterlimit="10" x1="44.978" y1="27.859" x2="66.188" y2="9.175"/>
<line fill="none" stroke="#282425" stroke-miterlimit="10" x1="56.293" y1="47.492" x2="75.845" y2="25.039"/>
<g>
	<path d="M-0.354,53.014C10.299,41.526,32.81,15.311,44.019,2.897c-0.463,3.428-0.834,27.05-0.834,40.019v4.169
		c3.335,0,8.245-0.648,9.819-1.575c0.927-2.687,1.761-7.782,2.224-9.542l2.131-0.186c-0.463,3.706-2.038,10.19-1.76,24.178
		l-2.131-0.463c-0.093-2.038-0.371-5.096-0.648-6.021c-2.594-0.463-5.929-0.463-9.635-0.463v3.057c0,5.28,0.186,11.486,0.464,13.524
		c1.481,0.278,8.151,1.112,10.004,1.297l0.464,1.945c-2.038-0.185-12.413-0.37-16.953-0.37c-3.149,0-14.822,0.186-17.323,0.37
		l0.37-1.945c1.39-0.185,10.931-1.111,13.433-1.297c0.278-2.687,0.463-8.985,0.463-13.247v-3.334H-0.354z M34.106,19.293
		c-4.91,5.651-15.655,17.508-24.271,27.792h24.271V19.293z"/>
</g>
</svg>
