<?xml version="1.0" encoding="utf-8"?>
<!-- Generator: Adobe Illustrator 15.0.0, SVG Export Plug-In . SVG Version: 6.00 Build 0)  -->
<!DOCTYPE svg PUBLIC "-//W3C//DTD SVG 1.1//EN" "http://www.w3.org/Graphics/SVG/1.1/DTD/svg11.dtd">
<svg version="1.1" id="Ebene_1" xmlns="http://www.w3.org/2000/svg" xmlns:xlink="http://www.w3.org/1999/xlink" x="0px" y="0px"
	 width="80px" height="80px" viewBox="0 0 80 80" enable-background="new 0 0 80 80" xml:space="preserve">
<path fill="#885E3D" stroke="#282425" stroke-miterlimit="10" d="M43.571,43.901c-6.595-12.599,0.779-21.726-1.969-28.74
	C38.749,7.878,30.579,2.76,22.114,6.5s-5.61,19.488,0.984,25.197s5.315,8.858,5.512,14.075h2.657c0,0,1.155-9.497-5.807-15.256
	S17.98,12.208,23,8.96s13.438,0.257,16.142,7.185s-4.527,15.059,2.461,28.74L43.571,43.901z"/>
<ellipse transform="matrix(0.9904 -0.1384 0.1384 0.9904 -7.5604 5.8145)" fill="#669AAA" cx="38.035" cy="57.278" rx="16.732" ry="18.848"/>
<path fill="#7ABDCC" d="M50.208,58.151c-2.95-8.502-11.599-13.223-19.321-10.545c-5.18,1.797-8.613,6.473-9.429,11.92
	c0.003,0.022,0.003,0.045,0.006,0.067c1.44,10.311,10.028,17.631,19.179,16.352c3.381-0.472,6.362-2.057,8.71-4.381
	C51.378,67.698,51.834,62.842,50.208,58.151z"/>
<ellipse transform="matrix(0.9904 -0.1384 0.1384 0.9904 -7.5604 5.8145)" fill="none" stroke="#282425" stroke-miterlimit="10" cx="38.035" cy="57.278" rx="16.732" ry="18.848"/>
<ellipse opacity="0.5" fill="#F4921E" cx="41.575" cy="45.77" rx="4.303" ry="3.839"/>
<ellipse opacity="0.5" fill="#6D6E70" cx="34.308" cy="65.047" rx="4.834" ry="6.189"/>
<ellipse opacity="0.5" fill="#D0D1D3" cx="47.593" cy="63.536" rx="2.868" ry="3.002"/>
<path fill="none" stroke="#282425" stroke-miterlimit="10" d="M28.414,46.856c3.248,3.441,4.649,10.422,4.626,13.087"/>
<path fill="none" stroke="#282425" stroke-miterlimit="10" d="M30.22,45.771c3.249,3.441,4.713,10.422,4.689,13.087"/>
<line fill="none" stroke="#282425" stroke-miterlimit="10" x1="29.474" y1="48.192" x2="28.414" y2="52.314"/>
<line fill="none" stroke="#282425" stroke-miterlimit="10" x1="30.727" y1="50.436" x2="30.22" y2="53.4"/>
<line fill="none" stroke="#282425" stroke-miterlimit="10" x1="32.944" y1="50.254" x2="34.91" y2="50.986"/>
<path fill="none" stroke="#282425" stroke-miterlimit="10" d="M43.571,51.918c2.583,2.612,3.248,8.813,2.46,11.273"/>
<path fill="none" stroke="#282425" stroke-miterlimit="10" d="M44.957,51.381c2.583,2.612,3.339,9.35,2.551,11.811"/>
<line fill="none" stroke="#282425" stroke-miterlimit="10" x1="45.878" y1="56.709" x2="43.571" y2="55.908"/>
<line fill="none" stroke="#282425" stroke-miterlimit="10" x1="47.281" y1="56.309" x2="48.228" y2="54.148"/>
<line fill="none" stroke="#282425" stroke-miterlimit="10" x1="46.083" y1="52.98" x2="46.381" y2="50.986"/>
<path fill="none" stroke="#282425" stroke-miterlimit="10" d="M38.645,76.087c1.355-1.479,1.824-4.628,1.802-6.674"/>
<path fill="none" stroke="#282425" stroke-miterlimit="10" d="M40.446,75.853c1.117-1.219,1.546-4.039,1.512-7.119"/>
<line fill="none" stroke="#282425" stroke-miterlimit="10" x1="40.197" y1="72.293" x2="39.142" y2="70.18"/>
<line fill="none" stroke="#282425" stroke-miterlimit="10" x1="39.142" y1="75.407" x2="38.645" y2="72.75"/>
<line fill="none" stroke="#282425" stroke-miterlimit="10" x1="41.203" y1="75.407" x2="42.98" y2="74.078"/>
</svg>
