<?xml version="1.0" encoding="utf-8"?>
<!-- Generator: Adobe Illustrator 15.0.0, SVG Export Plug-In . SVG Version: 6.00 Build 0)  -->
<!DOCTYPE svg PUBLIC "-//W3C//DTD SVG 1.1//EN" "http://www.w3.org/Graphics/SVG/1.1/DTD/svg11.dtd">
<svg version="1.1" id="Ebene_1" xmlns="http://www.w3.org/2000/svg" xmlns:xlink="http://www.w3.org/1999/xlink" x="0px" y="0px"
	 width="80px" height="80px" viewBox="0 0 80 80" enable-background="new 0 0 80 80" xml:space="preserve">
<path fill="#A67B50" d="M12.921,5.783c0,0,5.277,13.346,14.971,26.083c6.122,8.044,15.857,16.327,24.407,20.957
	c11.973,6.483,17.621,7.39,17.621,7.39l2.955,3.235l-7.508,8.217l-7.337,1.133c0,0-1.92-8.521-9.084-13.552
	c-7.991-5.61-24.898-15.439-32.176-30.136C11.705,18.881,12.921,5.783,12.921,5.783z"/>
<path fill="#679985" d="M39.338,48.839c-1.476-2.854-11.191-11.228-15.157-16.732c-1.827-2.536-2.596-6.473-2.896-9.983
	c-0.595-0.98-1.161-1.941-1.694-2.875c-0.108,3.526,0.213,7.796,1.932,10.792c3.445,6.004,9.059,9.936,10.925,14.468
	c0.48,1.167,0.948,2.588,1.378,4.055c2.261,1.784,4.503,3.416,6.63,4.897C40.223,51.631,39.871,49.869,39.338,48.839z"/>
<path opacity="0.5" fill="#E6E6E7" d="M58.961,58.058c-0.74,0.895-0.605,2.604,0.397,4.095c1.138,1.691,2.959,2.459,4.066,1.713
	c0.954-0.641,1.064-2.193,0.353-3.692C62.27,59.554,60.646,58.848,58.961,58.058z"/>
<path opacity="0.5" fill="#734D2C" d="M55.073,65.922c2.225,3.65,2.957,6.875,2.957,6.875l3.323-0.513
	c0.115-1.316-0.242-2.731-1.12-3.951C58.954,66.556,56.935,65.699,55.073,65.922z"/>
<path opacity="0.25" fill="#FFFFFF" d="M22.705,35.158c-8.464-12.598-8.667-21.63-9.465-28.604
	c-0.209-0.495-0.318-0.771-0.318-0.771s-1.216,13.098,3.849,23.327c2.005,4.049,5.648,9.283,10.592,13.868
	c4.945,4.585,11.191,8.521,14.569,11.146C38.466,49.041,27.912,42.908,22.705,35.158z"/>
<path opacity="0.5" fill="#734D2C" d="M18.209,16.768c-0.042-0.004-0.083-0.016-0.126-0.016c-0.823,0-1.489,0.837-1.489,1.87
	s0.667,1.87,1.489,1.87c0.687,0,1.258-0.586,1.431-1.379C19.055,18.309,18.622,17.527,18.209,16.768z"/>
<g id="Ebene_2">
	<path fill="none" stroke="#282425" stroke-miterlimit="10" d="M12.921,5.783c0,0,5.277,13.346,14.971,26.083
		c6.122,8.044,15.857,16.327,24.407,20.957c11.973,6.483,17.621,7.39,17.621,7.39l2.955,3.235l-7.508,8.217l-7.337,1.133
		c0,0-1.92-8.521-9.084-13.552c-7.991-5.61-24.898-15.439-32.176-30.136C11.705,18.881,12.921,5.783,12.921,5.783z"/>
	<path fill="none" stroke="#282425" stroke-miterlimit="10" d="M65.367,71.664c0,0-4.565-4.254-8.242-7.516
		c-6.103-5.413-19.182-11.449-25.284-17.182"/>
	<path fill="none" stroke="#282425" stroke-miterlimit="10" d="M72.875,63.447c0,0-16.932-4.908-28.437-14.142
		c-8.105-6.505-17.575-18.818-17.575-18.818"/>
</g>
</svg>
