<?xml version="1.0" encoding="utf-8"?>
<!-- Generator: Adobe Illustrator 15.0.0, SVG Export Plug-In . SVG Version: 6.00 Build 0)  -->
<!DOCTYPE svg PUBLIC "-//W3C//DTD SVG 1.1//EN" "http://www.w3.org/Graphics/SVG/1.1/DTD/svg11.dtd">
<svg version="1.1" id="Ebene_1" xmlns="http://www.w3.org/2000/svg" xmlns:xlink="http://www.w3.org/1999/xlink" x="0px" y="0px"
	 width="80px" height="80px" viewBox="0 0 80 80" enable-background="new 0 0 80 80" xml:space="preserve">
<path fill="#885E3D" d="M45.352,53.821c0,0,2.703,2.352,1.598,3.459c-0.677,0.678-3.146-0.256-3.768,3.471
	c-0.738,4.432-3.984,12.124-3.984,12.124l-2.659,1.063l-4.283-1.063l-0.7-1.74c0,0,5.564-8.788,6.605-15.259
	c0.493-3.066-3.928-7.01-2.364-7.827c0.889-0.467,3.598,1.771,3.598,1.771L45.352,53.821z"/>
<path opacity="0.75" fill="#70C4BF" d="M43.626,56.171c-7.264-4.446,0,0-4.429,7.217c-1.632,2.662-4.622,7.247-4.934,9.985
	l2.275,0.564c0,0,3.983-9.485,5.165-12.925c1.063-3.094,3.416-3.184,3.465-3.186c0.548-0.195,1.088-0.227,1.461-0.359
	C45.834,56.778,44.608,56.774,43.626,56.171z"/>
<path fill="none" stroke="#282425" stroke-miterlimit="10" d="M45.352,53.821c0,0,2.703,2.352,1.598,3.459
	c-0.677,0.678-3.445-0.294-3.768,3.471c-0.497,5.806-3.984,12.124-3.984,12.124l-2.659,1.063l-4.283-1.063l-0.7-1.74
	c0,0,5.564-8.788,6.605-15.259c0.493-3.066-3.928-7.01-2.364-7.827c0.889-0.467,3.598,1.771,3.598,1.771L45.352,53.821z"/>
<path fill="none" stroke="#282425" stroke-miterlimit="10" d="M32.255,72.875c0,0,5.496-9.585,6.19-12.087
	c0.958-3.455-0.488-6.805-0.488-6.805"/>
<path fill="none" stroke="#282425" stroke-miterlimit="10" d="M36.539,73.938c0,0,3.983-9.485,5.165-12.925
	c1.074-3.127,3.469-3.186,3.469-3.186"/>
<g id="Klinge">
	<polygon fill="#F4921E" points="46.729,1.509 49.09,9.217 45.071,55.333 41.104,53.067 39.197,50.297 43.109,6.204 	"/>
	<polygon opacity="0.25" fill="#FFFFFF" points="45.768,47.164 49.09,9.217 46.729,1.509 45.86,2.636 	"/>
	<polygon opacity="0.25" fill="#FFFFFF" points="45.238,3.443 45.574,49.437 45.172,53.067 44.661,4.191 	"/>
	<polygon fill="none" stroke="#282425" stroke-miterlimit="10" points="46.729,1.509 49.09,9.217 45.071,55.333 41.104,53.067 
		39.197,50.297 43.109,6.204 	"/>
	<line fill="none" stroke="#282425" stroke-miterlimit="10" x1="41.104" y1="53.067" x2="45.185" y2="12.406"/>
</g>
</svg>
