<?xml version="1.0" encoding="utf-8"?>
<!-- Generator: Adobe Illustrator 15.0.0, SVG Export Plug-In . SVG Version: 6.00 Build 0)  -->
<!DOCTYPE svg PUBLIC "-//W3C//DTD SVG 1.1//EN" "http://www.w3.org/Graphics/SVG/1.1/DTD/svg11.dtd">
<svg version="1.1" id="Ebene_1" xmlns="http://www.w3.org/2000/svg" xmlns:xlink="http://www.w3.org/1999/xlink" x="0px" y="0px"
	 width="80px" height="80px" viewBox="0 0 80 80" enable-background="new 0 0 80 80" xml:space="preserve">
<g id="Griff">
	<path fill="#885E3D" d="M20.638,46.87c0,0-1.905,3.766-4.134,5.313c-2.149,1.492-9.357,1.96-11.713,4.957
		c-2.095,2.666-3.445,8.301-3.445,8.301l3.445,1.969l2.559-1.28c0,0,2.166-6.661,6.497-7.755c5.542-1.399,8.464,1.094,8.464,1.094
		l4.036-7.48L20.638,46.87z"/>
	<path fill="#5F3B19" d="M18.236,50.524c-0.532,0.638-1.119,1.233-1.732,1.659c-2.149,1.492-9.357,1.96-11.713,4.957
		c-1.183,1.505-2.127,3.955-2.727,5.805c1.242,0.221,2.911-0.343,3.514-2.69c0.886-3.445,5.02-4.134,11.024-5.905
		C18.734,53.721,18.901,52.21,18.236,50.524z"/>
	<path opacity="0.5" fill="#3CA2A5" d="M19.608,57.273c-0.016-1.378-3.945-2.062-5.887,1.145c0.042-0.013,0.083-0.032,0.125-0.043
		c1.9-0.479,3.485-0.497,4.757-0.319C19.189,57.938,19.613,57.745,19.608,57.273z"/>
	<g id="Ebene_4">
		<path fill="none" stroke="#282425" stroke-miterlimit="10" d="M20.638,46.87c0,0-1.905,3.766-4.134,5.313
			c-2.149,1.492-9.357,1.96-11.713,4.957c-2.095,2.666-3.445,8.301-3.445,8.301l3.445,1.969l2.559-1.28c0,0,2.166-6.661,6.497-7.755
			c5.542-1.399,8.464,1.094,8.464,1.094l4.036-7.48L20.638,46.87z"/>
		<path fill="none" stroke="#282425" stroke-miterlimit="10" d="M22.311,59.469c0,0-2.667-1.378-5.807-1.379
			c-4.134-0.001-7.798,1.641-9.345,3.563c-1.54,1.914-2.368,5.757-2.368,5.757"/>
		<line fill="none" stroke="#282425" stroke-miterlimit="10" x1="20.638" y1="46.87" x2="22.311" y2="59.469"/>
	</g>
</g>
<g id="Klinge">
	<polygon fill="#BBBCBF" points="71.819,28.131 66.76,33.603 23.295,55.335 22.705,50.61 66.076,28.499 	"/>
	<g opacity="0.66">
		<polygon fill="#FFFFFF" points="54.871,34.313 50.98,36.297 41.27,46.426 47.032,43.545 		"/>
		<polygon fill="#FFFFFF" points="66.076,28.499 58.051,32.59 50.13,41.918 59.995,36.985 68.266,28.358 		"/>
	</g>
	<polygon fill="none" stroke="#282425" stroke-miterlimit="10" points="71.819,28.131 66.76,33.603 23.295,55.335 22.705,50.61 
		66.076,28.499 	"/>
	<line fill="none" stroke="#282425" stroke-miterlimit="10" x1="23.024" y1="53.17" x2="65.933" y2="31.152"/>
</g>
</svg>
