<?xml version="1.0" encoding="utf-8"?>
<!-- Generator: Adobe Illustrator 15.0.0, SVG Export Plug-In . SVG Version: 6.00 Build 0)  -->
<!DOCTYPE svg PUBLIC "-//W3C//DTD SVG 1.1//EN" "http://www.w3.org/Graphics/SVG/1.1/DTD/svg11.dtd">
<svg version="1.1" id="Ebene_1" xmlns="http://www.w3.org/2000/svg" xmlns:xlink="http://www.w3.org/1999/xlink" x="0px" y="0px"
	 width="80px" height="80px" viewBox="0 0 80 80" enable-background="new 0 0 80 80" xml:space="preserve">
<path fill="#AFAFAF" stroke="#282425" stroke-miterlimit="10" d="M32.055,61.437c0,0-3.907,3.312-3.555,6.505
	c0.206,1.869-0.875,2.904-1.268,1.369c-0.859-3.353,1.968-6.85,1.968-6.85L32.055,61.437z"/>
<path fill="#885E3D" d="M37.96,57.106c-0.255,3.194-5.216,3.444-8.661,8.07s-4.036,6.693-4.036,6.693l-3.74-1.969l0.689-4.33
	c0,0,2.559-1.674,4.232-4.331s1.969-8.563,5.61-8.169S38.157,54.646,37.96,57.106z"/>
<path fill="#563A28" d="M37.153,58.874c-1.849-1.022-6.123,0.776-7.953,3.587c-1.102,1.692-1.506,3.391-1.489,4.958
	c0.447-0.668,0.97-1.412,1.588-2.242C31.979,61.577,35.568,60.623,37.153,58.874z"/>
<path fill="none" stroke="#282425" stroke-miterlimit="10" d="M37.96,57.106c-0.255,3.194-5.216,3.444-8.661,8.07
	s-4.036,6.693-4.036,6.693l-3.74-1.969l0.689-4.33c0,0,2.559-1.674,4.232-4.331s1.969-8.563,5.61-8.169S38.157,54.646,37.96,57.106z
	"/>
<path fill="none" stroke="#282425" stroke-miterlimit="10" d="M21.523,69.901c0,0,4.667-3.71,6.792-7.44
	c0.923-1.621,1.349-4.588,2.264-6.044c1.413-2.247,3.15-2.657,3.15-2.657"/>
<polygon fill="#DBDBDB" stroke="#282425" stroke-miterlimit="10" points="59.221,5.827 58.531,12.323 35.5,56.417 33.236,55.531 
	32.055,54.153 56.071,8.681 "/>
<path fill="#AFAFAF" stroke="#282425" stroke-miterlimit="10" d="M31.188,52.48c2.081-0.625,0.867,1.673,2.344,2.362
	c1.316,0.614,3.565-0.985,4.44,0.59s-2.166,0.197-3.598,1.969s-2.318,3.445-5.465,3.94c-2.46,0.387-2.857,7.969-4.137,7.969
	s-0.291-9.94,3.839-10.63c1.885-0.314,3.249-0.099,3.051-2.264S29.488,52.991,31.188,52.48z"/>
<line fill="none" stroke="#282425" stroke-miterlimit="10" x1="33.532" y1="54.843" x2="56.268" y2="12.027"/>
</svg>
