<?xml version="1.0" encoding="utf-8"?>
<!-- Generator: Adobe Illustrator 15.0.0, SVG Export Plug-In . SVG Version: 6.00 Build 0)  -->
<!DOCTYPE svg PUBLIC "-//W3C//DTD SVG 1.1//EN" "http://www.w3.org/Graphics/SVG/1.1/DTD/svg11.dtd">
<svg version="1.1" id="Ebene_1" xmlns="http://www.w3.org/2000/svg" xmlns:xlink="http://www.w3.org/1999/xlink" x="0px" y="0px"
	 width="80px" height="80px" viewBox="0 0 80 80" enable-background="new 0 0 80 80" xml:space="preserve">
<path fill="#59595B" d="M16.496,33.889l50.449,35.699c-9.693-22.816-47.394-52.836-47.394-52.836L16.496,33.889z"/>
<path opacity="0.1" fill="#FDFDFF" d="M47.258,42.388l7.766,16.145l-1.673,1.436l13.595,9.62
	C63.246,60.879,55.465,51.125,47.258,42.388z"/>
<path opacity="0.1" fill="#FDFDFF" d="M35.653,30.832l5.229,14.587l-3.586,3.188l29.65,20.98
	C61.485,56.737,47.143,41.603,35.653,30.832z"/>
<path opacity="0.1" fill="#FDFDFF" d="M25.708,21.898l4.102,13.253l-5.254,4.441l42.389,29.995
	C59.699,52.532,36.808,31.456,25.708,21.898z"/>
<path opacity="0.25" fill="#FDFDFF" d="M19.551,16.752l1.115,4.176c0,0,21.055,18.176,28.265,25.909
	c7.147,7.666,18.015,22.751,18.015,22.751C57.252,46.771,19.551,16.752,19.551,16.752z"/>
<path fill="none" stroke="#282425" stroke-miterlimit="10" d="M16.496,33.889l50.449,35.699
	c-9.693-22.816-47.394-52.836-47.394-52.836L16.496,33.889z"/>
<polyline fill="none" stroke="#282425" stroke-miterlimit="10" points="19.551,16.752 22.705,28.563 16.496,33.889 "/>
<line fill="none" stroke="#282425" stroke-miterlimit="10" x1="66.945" y1="69.588" x2="22.705" y2="28.563"/>
<g id="Griff">
	<path fill="#885E3D" d="M6.538,13.328l0.217,2.675c0,0,2.157-0.707,5.364,3.065c3.208,3.773,1.228,8.05,6.609,10.524l2.3-1.066
		l-0.592-3.419c-3.446-1.763-1.481-6.074-4.879-9.968c-2.179-2.497-6.975-2.759-6.975-2.759L6.538,13.328z"/>
	<path opacity="0.25" fill="#FFFFFF" d="M14.767,22.952c0-4.403-2.696-7.972-6.021-7.972c-0.715,0-1.398,0.174-2.035,0.477
		l0.044,0.546c0,0,2.157-0.707,5.364,3.065c1.596,1.876,1.908,3.878,2.481,5.72C14.706,24.198,14.767,23.585,14.767,22.952z"/>
	<path fill="none" stroke="#282425" stroke-miterlimit="10" d="M6.538,13.328l0.217,2.675c0,0,2.157-0.707,5.364,3.065
		c3.208,3.773,1.228,8.05,6.609,10.524l2.3-1.066l-0.592-3.419c-3.446-1.763-1.481-6.074-4.879-9.968
		c-2.179-2.497-6.975-2.759-6.975-2.759L6.538,13.328z"/>
	<path fill="none" stroke="#282425" stroke-miterlimit="10" d="M6.538,13.328c0,0,5.032,0.165,7.674,4.119
		c2.433,3.641,1.615,7.015,4.247,9.622c0.997,0.987,2.57,1.458,2.57,1.458"/>
</g>
</svg>
